<svg width="165" height="165" viewBox="0 0 165 165" fill="none" xmlns="http://www.w3.org/2000/svg">
<path fill-rule="evenodd" clip-rule="evenodd" d="M79.5967 85.0001V-0.000495H84.9032V85.0001C94.814 85.7299 103.883 90.5336 110.091 98.4331L157.83 159.193H164.5V164.5H0V159.193H6.66986L54.4092 98.4331C60.6166 90.5336 69.6859 85.7298 79.5967 85.0001ZM119.395 15.9192V21.2254H114.089V47.7576H119.395V53.0642H124.702V47.7576H130.008V53.0642H135.314V47.303C138.403 46.2081 140.621 43.2573 140.621 39.7978C140.621 37.7614 139.851 35.9012 138.59 34.4916C139.851 33.0823 140.621 31.2218 140.621 29.185C140.621 25.7256 138.403 22.7749 135.314 21.68V15.9192H130.008V21.2254H124.702V15.9192H119.395ZM48.7845 114.182L13.4187 159.193H151.081L115.715 114.181C114.547 114.414 113.83 115.075 112.785 116.039C111.252 117.454 109.147 119.395 105.235 119.395C101.326 119.395 99.225 117.46 97.6891 116.046L97.6821 116.039C96.3631 114.822 95.5654 114.088 93.7256 114.088C91.8885 114.088 91.0932 114.822 89.7768 116.037L89.774 116.039C88.2378 117.457 86.1367 119.395 82.2266 119.395C78.3167 119.395 76.2155 117.454 74.6816 116.037L74.679 116.034C73.3644 114.821 72.5711 114.088 70.7378 114.088C68.9051 114.088 68.112 114.82 66.7978 116.034L66.7945 116.037C65.2606 117.454 63.1592 119.395 59.2495 119.395C55.3393 119.395 53.2379 117.454 51.7041 116.037L51.7008 116.034C50.6606 115.074 49.947 114.415 48.7845 114.182ZM52.2135 109.817C53.5254 110.495 54.4948 111.391 55.3057 112.14L55.3098 112.144C56.6236 113.356 57.4166 114.088 59.2495 114.088C61.0819 114.088 61.875 113.356 63.1887 112.144L63.1929 112.14C64.7267 110.722 66.8281 108.782 70.7378 108.782C74.648 108.782 76.7493 110.722 78.2831 112.14L78.2873 112.144C79.601 113.356 80.3941 114.088 82.2266 114.088C84.0637 114.088 84.8592 113.355 86.1754 112.14L86.1782 112.137C87.7144 110.72 89.8155 108.782 93.7256 108.782C97.6342 108.782 99.7348 110.716 101.271 112.13L101.278 112.137C102.597 113.355 103.395 114.088 105.235 114.088C107.075 114.088 107.87 113.355 109.189 112.137L109.189 112.137C110 111.389 110.971 110.493 112.285 109.816L105.919 101.713C100.172 94.4018 91.5466 90.2093 82.2499 90.2093C72.9533 90.2093 64.3277 94.4018 58.5808 101.713L52.2135 109.817ZM119.395 42.4512H132.661C134.125 42.4512 135.314 41.262 135.314 39.7978C135.314 38.334 134.125 37.145 132.661 37.145H119.395V42.4512ZM119.395 31.8384H132.661C134.125 31.8384 135.314 30.6492 135.314 29.185C135.314 27.721 134.125 26.532 132.661 26.532H119.395V31.8384ZM164.5 63.6771H90.2096V58.3706H159.193V47.7576H145.927V42.4512H159.193V26.532H145.927V21.2254H159.193V10.6126H90.2096V5.30623H164.5V63.6771ZM90.2096 26.532H108.782V21.2254H90.2096V26.532ZM108.782 47.7576H90.2096V42.4512H108.782V47.7576Z" fill="#0B65C6"/>
</svg>
