<svg width="165" height="165" viewBox="0 0 165 165" fill="none" xmlns="http://www.w3.org/2000/svg">
<path fill-rule="evenodd" clip-rule="evenodd" d="M0.49995 50.4108C0.49995 78.2075 23.1145 100.822 50.9112 100.822C54.5904 100.822 58.3811 100.382 62.1821 99.5138L61.0007 94.3419C57.5883 95.1192 54.1941 95.5155 50.9112 95.5155C26.04 95.5155 5.80652 75.2822 5.80652 50.4108C5.80652 25.5395 26.04 5.30623 50.9112 5.30623C75.7827 5.30623 96.0161 25.5395 96.0161 50.4108C96.0161 53.6938 95.6196 57.088 94.8423 60.5002L100.014 61.6818C100.882 57.8807 101.323 54.09 101.323 50.4108C101.323 22.6141 78.7081 -0.000495 50.9112 -0.000495C23.1145 -0.000495 0.49995 22.6141 0.49995 50.4108ZM135.814 50.4108V39.7978H109.282V34.4916H141.121V39.7978L155.27 29.185L141.121 18.5721V23.8786H109.282V18.5721H135.814V7.95927L164.116 29.185L135.814 50.4108ZM114.589 164.5C86.7918 164.5 64.1774 141.885 64.1774 114.088C64.1774 101.004 69.1884 89.0672 77.3921 80.0975C70.3523 86.3838 61.0704 90.2093 50.9112 90.2093C41.3634 90.2093 32.1158 86.7478 24.8738 80.4642L28.3511 76.4585C34.6292 81.9024 42.6406 84.9027 50.9112 84.9027C69.9295 84.9027 85.4032 69.4292 85.4032 50.4108C85.4032 42.1402 82.4026 34.1289 76.9591 27.8507L80.9647 24.3736C87.248 31.6153 90.7096 40.8629 90.7096 50.4108C90.7096 60.5701 86.884 69.852 80.5977 76.8919C89.5675 68.6881 101.504 63.6771 114.589 63.6771C142.385 63.6771 165 86.2915 165 114.088C165 141.885 142.385 164.5 114.589 164.5ZM114.589 68.9834C89.7173 68.9834 69.4838 89.2171 69.4838 114.088C69.4838 138.96 89.7173 159.193 114.589 159.193C139.46 159.193 159.693 138.96 159.693 114.088C159.693 89.2171 139.46 68.9834 114.589 68.9834ZM1.38336 135.314L29.6855 156.54V145.927H56.2176V140.621H24.3789V145.927L10.2293 135.314L24.3789 124.701V130.008H56.2176V124.701H29.6855V114.088L1.38336 135.314ZM117.242 137.967H106.629V143.274H101.323V137.967H96.0161V90.2093H101.323V84.9027H106.629V90.2093H117.242V84.9027H122.548V90.4759C128.596 91.7085 133.161 97.0693 133.161 103.475C133.161 107.81 131.07 111.666 127.847 114.088C131.07 116.511 133.161 120.366 133.161 124.701C133.161 131.107 128.596 136.468 122.548 137.701V143.274H117.242V137.967ZM101.323 132.661H119.895C124.284 132.661 127.855 129.091 127.855 124.701C127.855 120.312 124.284 116.742 119.895 116.742H101.323V132.661ZM101.323 111.435H119.895C124.284 111.435 127.855 107.865 127.855 103.475C127.855 99.0861 124.284 95.5155 119.895 95.5155H101.323V111.435ZM84.5353 140.126C78.2519 132.884 74.7902 123.636 74.7902 114.088C74.7902 92.1423 92.6425 74.2898 114.589 74.2898C124.137 74.2898 133.384 77.7516 140.626 84.0352L137.149 88.0405C130.871 82.5969 122.859 79.5963 114.589 79.5963C95.5703 79.5963 80.0966 95.07 80.0966 114.088C80.0966 122.359 83.0971 130.37 88.5408 136.648L84.5353 140.126ZM88.5512 144.142C95.7932 150.425 105.041 153.887 114.589 153.887C136.535 153.887 154.387 136.034 154.387 114.088C154.387 104.54 150.925 95.2929 144.642 88.0508L140.636 91.5283C146.08 97.8061 149.081 105.818 149.081 114.088C149.081 133.107 133.607 148.58 114.589 148.58C106.318 148.58 98.3067 145.58 92.0286 140.136L88.5512 144.142ZM56.2176 74.2898H53.5644V79.5963H48.258V74.2898H45.6048C38.2904 74.2898 32.3387 68.3382 32.3387 61.0239V58.3706H37.6451V61.0239C37.6451 65.4129 41.2155 68.9834 45.6048 68.9834H56.2176C60.607 68.9834 64.1774 65.4129 64.1774 61.0239C64.1774 56.6346 60.607 53.0642 56.2176 53.0642H45.6048C38.2904 53.0642 32.3387 47.1126 32.3387 39.7978C32.3387 32.4834 38.2904 26.532 45.6048 26.532H48.258V21.2254H53.5644V26.532H56.2176C63.5321 26.532 69.4838 32.4834 69.4838 39.7978V42.4512H64.1774V39.7978C64.1774 35.4088 60.607 31.8384 56.2176 31.8384H45.6048C41.2155 31.8384 37.6451 35.4088 37.6451 39.7978C37.6451 44.1872 41.2155 47.7576 45.6048 47.7576H56.2176C63.5321 47.7576 69.4838 53.7095 69.4838 61.0239C69.4838 68.3382 63.5321 74.2898 56.2176 74.2898ZM11.1129 50.4108C11.1129 59.9589 14.5744 69.2061 20.8578 76.4483L24.8635 72.9711C19.4198 66.693 16.4193 58.6814 16.4193 50.4108C16.4193 31.3924 31.8928 15.9192 50.9112 15.9192C59.1819 15.9192 67.1933 18.9197 73.4714 24.3631L76.9486 20.3575C69.7067 14.074 60.4591 10.6126 50.9112 10.6126C28.9651 10.6126 11.1129 28.4646 11.1129 50.4108ZM130.508 50.4108H125.202V45.1042H130.508V50.4108ZM114.589 50.4108H119.895V45.1042H114.589V50.4108ZM50.9112 119.395H45.6048V114.088H50.9112V119.395ZM34.9919 119.395H40.2984V114.088H34.9919V119.395Z" fill="#0B65C6"/>
</svg>
