<svg width="165" height="165" viewBox="0 0 165 165" fill="none" xmlns="http://www.w3.org/2000/svg">
<path fill-rule="evenodd" clip-rule="evenodd" d="M31.9354 85.1608H34.5967V97.3654L31.613 94.3817C30.1057 92.8744 29.2741 90.868 29.2741 88.7345V84.8934C30.1343 85.0687 31.0243 85.1608 31.9354 85.1608ZM31.3845 105.9C32.1002 105.184 32.7091 104.371 33.198 103.493L27.8499 98.145C25.3367 95.632 23.9516 92.2898 23.9516 88.7345V82.4997H23.9607C20.7256 80.0699 18.629 76.2021 18.629 71.8544V48.7805C18.0548 49.4121 17.554 50.1119 17.1423 50.8655L10.198 63.5951C7.0092 69.4429 5.32257 76.0543 5.32257 82.713V118.089C5.32257 124.173 6.40629 130.146 8.54271 135.842L13.3064 148.549V165H7.98385V149.515L3.55773 137.714C1.19807 131.414 0 124.813 0 118.089V82.713C0 75.1653 1.9102 67.6729 5.52535 61.0482L12.4694 48.3161C13.8997 45.6961 16.0503 43.5135 18.629 42.037V13.3059C18.629 5.96937 24.5989 -0.000495 31.9354 -0.000495H45.2418V71.8544C50.1943 71.8544 54.3662 75.2513 55.5504 79.8384H90.4839V85.1608H55.887V118.463C55.887 126.83 53.3168 134.852 48.4518 141.664L42.5806 149.884V165H37.258V148.179L44.1217 138.571C48.3372 132.669 50.5646 125.714 50.5646 118.463V82.4997C50.5646 79.5656 48.1759 77.1771 45.2418 77.1771C42.3078 77.1771 39.9193 79.5656 39.9193 82.4997V98.145C39.9193 102.496 38.2247 106.586 35.1476 109.663C32.0706 112.741 27.9799 114.435 23.6292 114.435H18.629V109.113H23.6292C26.5168 109.113 29.3418 107.941 31.3845 105.9ZM39.9193 5.32207V73.2823C37.4821 74.6948 35.6541 77.0461 34.9332 79.8384H31.9354C27.5329 79.8384 23.9516 76.2571 23.9516 71.8544V13.3059C23.9516 8.90356 27.5329 5.32207 31.9354 5.32207H39.9193ZM151.694 79.8384V85.1608C159.03 85.1608 165 79.1909 165 71.8544V13.3059C165 5.96937 159.03 -0.000495 151.694 -0.000495H50.5646V5.32207H143.71V77.1771H149.032V5.32207H151.694C156.096 5.32207 159.677 8.90356 159.677 13.3059V71.8544C159.677 76.2571 156.096 79.8384 151.694 79.8384ZM29.2741 53.2254H34.5967V31.9351H29.2741V53.2254ZM122.419 79.8384C119.485 79.8384 117.097 82.2269 117.097 85.1608V117.096H111.774V85.1608V53.2254C111.774 50.2913 109.386 47.903 106.452 47.903C103.518 47.903 101.129 50.2913 101.129 53.2254V117.096H95.8064V95.8061H95.6271C89.8549 95.8061 85.1613 100.5 85.1613 106.272V134.909C85.1613 139.87 87.0974 144.541 90.6137 148.06L101.129 158.575V165H95.8064V160.779L86.8506 151.823C82.3282 147.298 79.8385 141.292 79.8385 134.909V106.272C79.8385 97.5653 86.9205 90.4835 95.6271 90.4835H95.8064V53.2254C95.8064 47.3542 100.58 42.5802 106.452 42.5802C112.323 42.5802 117.097 47.3542 117.097 53.2254V75.9438C118.663 75.0359 120.482 74.5158 122.419 74.5158C127.057 74.5158 131.01 77.4946 132.467 81.6398C134.16 80.5025 136.197 79.8384 138.387 79.8384C144.258 79.8384 149.032 84.6125 149.032 90.4835V91.9615C150.591 91.0433 152.398 90.5066 154.324 90.4835C157.068 90.4131 159.841 91.5311 161.863 93.5294C163.885 95.5279 165 98.1943 165 101.038V134.891C165 141.29 162.508 147.304 157.983 151.828L149.032 160.779V165H143.71V158.575L154.22 148.065C157.739 144.546 159.677 139.866 159.677 134.891V101.038C159.677 99.629 159.126 98.3063 158.123 97.3162C157.136 96.3415 155.834 95.8061 154.451 95.8061H154.386C151.434 95.8399 149.032 98.2699 149.032 101.222V117.096H143.71V101.222V90.4835C143.71 87.5495 141.321 85.1608 138.387 85.1608C135.453 85.1608 133.065 87.5495 133.065 90.4835V117.096H127.742V90.4835V85.1608C127.742 82.2269 125.353 79.8384 122.419 79.8384ZM66.5323 55.8868H71.8547V61.2094H77.1774V55.8868H82.5V61.2094H87.8226V55.4308C90.9205 54.3325 93.1451 51.3728 93.1451 47.903C93.1451 45.8601 92.3733 43.9941 91.1076 42.5802C92.3733 41.1667 93.1451 39.3005 93.1451 37.2577C93.1451 33.7877 90.9205 30.8281 87.8226 29.7298V23.9512H82.5V29.2738H77.1774V23.9512H71.8547V29.2738H66.5323V55.8868ZM85.1613 50.5641H71.8547V45.2415H85.1613C86.6298 45.2415 87.8226 46.4343 87.8226 47.903C87.8226 49.3711 86.6298 50.5641 85.1613 50.5641ZM85.1613 39.9188H71.8547V34.5965H85.1613C86.6298 34.5965 87.8226 35.789 87.8226 37.2577C87.8226 38.7263 86.6298 39.9188 85.1613 39.9188ZM50.5646 42.5802C50.5646 58.7222 63.6968 71.8544 79.8385 71.8544C83.9086 71.8544 87.8485 71.036 91.5494 69.4168L89.4183 64.5411C86.3932 65.8611 83.1706 66.5318 79.8385 66.5318C66.631 66.5318 55.887 55.7882 55.887 42.5802C55.887 29.3725 66.631 18.6285 79.8385 18.6285C91.1856 18.6285 101.056 26.6853 103.309 37.7878L108.528 36.7275C105.771 23.1563 93.7063 13.3059 79.8385 13.3059C63.6968 13.3059 50.5646 26.4384 50.5646 42.5802ZM130.403 29.2738C126.001 29.2738 122.419 25.6926 122.419 21.2899C122.419 16.8874 126.001 13.3059 130.403 13.3059C134.806 13.3059 138.387 16.8874 138.387 21.2899C138.387 25.6926 134.806 29.2738 130.403 29.2738ZM130.403 18.6285C128.935 18.6285 127.742 19.8213 127.742 21.2899C127.742 22.7583 128.935 23.9512 130.403 23.9512C131.872 23.9512 133.065 22.7583 133.065 21.2899C133.065 19.8213 131.872 18.6285 130.403 18.6285ZM130.403 50.5641C126.001 50.5641 122.419 46.9829 122.419 42.5802C122.419 38.1777 126.001 34.5965 130.403 34.5965C134.806 34.5965 138.387 38.1777 138.387 42.5802C138.387 46.9829 134.806 50.5641 130.403 50.5641ZM130.403 39.9188C128.935 39.9188 127.742 41.1116 127.742 42.5802C127.742 44.0489 128.935 45.2415 130.403 45.2415C131.872 45.2415 133.065 44.0489 133.065 42.5802C133.065 41.1116 131.872 39.9188 130.403 39.9188ZM130.403 71.8544C126.001 71.8544 122.419 68.2732 122.419 63.8705C122.419 59.468 126.001 55.8868 130.403 55.8868C134.806 55.8868 138.387 59.468 138.387 63.8705C138.387 68.2732 134.806 71.8544 130.403 71.8544ZM130.403 61.2094C128.935 61.2094 127.742 62.4018 127.742 63.8705C127.742 65.3392 128.935 66.5318 130.403 66.5318C131.872 66.5318 133.065 65.3392 133.065 63.8705C133.065 62.4018 131.872 61.2094 130.403 61.2094Z" fill="#0B65C6"/>
</svg>
