<?xml version="1.0" encoding="UTF-8" standalone="no"?>
<!-- Created with Inkscape (http://www.inkscape.org/) -->

<svg
   width="203"
   height="64"
   viewBox="0 0 53.710416 16.933333"
   version="1.1"
   id="svg5"
   inkscape:version="1.1 (c68e22c387, 2021-05-23)"
   sodipodi:docname="рисунок.svg"
   xmlns:inkscape="http://www.inkscape.org/namespaces/inkscape"
   xmlns:sodipodi="http://sodipodi.sourceforge.net/DTD/sodipodi-0.dtd"
   xmlns="http://www.w3.org/2000/svg"
   xmlns:svg="http://www.w3.org/2000/svg">
  <sodipodi:namedview
     id="namedview7"
     pagecolor="#ffffff"
     bordercolor="#999999"
     borderopacity="1"
     inkscape:pageshadow="0"
     inkscape:pageopacity="0"
     inkscape:pagecheckerboard="0"
     inkscape:document-units="mm"
     showgrid="false"
     width="209mm"
     fit-margin-top="0"
     fit-margin-left="0"
     fit-margin-right="0"
     fit-margin-bottom="0"
     units="px"
     inkscape:zoom="2.6832492"
     inkscape:cx="99.87891"
     inkscape:cy="26.274116"
     inkscape:window-width="2560"
     inkscape:window-height="1351"
     inkscape:window-x="-9"
     inkscape:window-y="-9"
     inkscape:window-maximized="1"
     inkscape:current-layer="layer1" />
  <defs
     id="defs2" />
  <g
     inkscape:label="Слой 1"
     inkscape:groupmode="layer"
     id="layer1">
    <path
       id="Rectangle2"
       fill="#000000"
       stroke="none"
       d="M 1.7026661,0.03232117 H 52.045831 c 0.926795,0 1.678107,0.75603464 1.678107,1.68865453 V 15.230212 c 0,0.932615 -0.751312,1.688654 -1.678107,1.688654 H 1.7026661 c -0.926792,0 -1.67810537,-0.756039 -1.67810537,-1.688654 V 1.7209757 c 0,-0.93261989 0.75131337,-1.68865453 1.67810537,-1.68865453 z"
       style="stroke-width:0.336674" />
    <path
       id="Shape"
       fill="#ffffff"
       fill-rule="evenodd"
       stroke="none"
       d="M 10.575112,2.9030339 C 10.66516,3.5184488 10.416228,4.1213306 10.087858,4.5478847 9.7365634,5.0054108 9.1310019,5.3592822 8.5443026,5.3408124 8.4371723,4.7516385 8.7114084,4.144567 9.0450833,3.7364875 9.4111109,3.2860886 10.038422,2.9405555 10.575112,2.9030339 Z m 1.762516,8.6621571 c 0.30246,-0.466473 0.415463,-0.701776 0.650264,-1.228429 C 11.280118,9.6832539 11.006487,7.2401055 12.696606,6.3023994 12.181093,5.6518284 11.456655,5.2747461 10.772861,5.2747461 c -0.492726,0 -0.8302945,0.1293908 -1.1372198,0.2470214 -0.2557427,0.098007 -0.4901735,0.1878814 -0.7753515,0.1878814 -0.3081336,0 -0.5809936,-0.098486 -0.8667075,-0.2015584 C 7.679608,5.3948095 7.350129,5.2759315 6.9412755,5.2759315 c -0.7673642,0 -1.5841652,0.4718112 -2.1020286,1.2784465 -0.7279621,1.1360904 -0.6037824,3.2718355 0.5766978,5.091226 0.4219427,0.651147 0.9856852,1.38274 1.723079,1.38929 0.3059522,0.003 0.5095399,-0.08882 0.7298752,-0.188289 0.2521515,-0.11381 0.5262532,-0.237523 1.0008221,-0.240054 0.4773527,-0.0028 0.7471262,0.122324 0.9959556,0.237828 0.2146624,0.09962 0.4137534,0.192035 0.7170884,0.188727 0.737964,-0.006 1.332918,-0.816768 1.754863,-1.467915 z"
       style="stroke-width:0.336674" />
    <path
       id="DOWNLOAD-ON-THE"
       fill="#ffffff"
       stroke="none"
       d="m 17.194668,3.5790006 v 2.0258806 h 0.709402 c 0.654864,0 0.895269,-0.4289146 0.895269,-1.0166714 0,-0.5936624 -0.246311,-1.0092092 -0.895269,-1.0092092 z m 0.356931,0.2998023 h 0.309713 c 0.429193,0 0.57079,0.2938655 0.57079,0.715349 0,0.5001804 -0.19617,0.7109272 -0.57079,0.7109272 h -0.309713 z m 2.11032,0.583263 c 0,-0.4096308 0.206508,-0.6188935 0.485241,-0.6188935 0.280245,0 0.483765,0.2092627 0.483765,0.6188935 v 0.2745763 c 0,0.4096307 -0.20352,0.6040672 -0.483765,0.6040672 -0.278733,0 -0.485241,-0.1944365 -0.485241,-0.6040672 z m -0.36133,0.2730923 c 0,0.5728892 0.321525,0.9098109 0.845094,0.9098109 0.523603,0 0.848082,-0.3369217 0.848082,-0.9098109 v -0.270119 c 0,-0.5743785 -0.320049,-0.9261266 -0.845128,-0.9261266 -0.522092,0 -0.848048,0.3502587 -0.848048,0.9261266 z m 2.953969,0.869723 0.387911,-1.458928 h 0.01325 l 0.387914,1.458928 h 0.325955 L 23.90793,3.5790006 h -0.382003 l -0.333341,1.4871321 h -0.01473 L 22.810586,3.5790006 H 22.489061 L 22.12035,5.0661327 H 22.1071 L 21.772272,3.5790006 h -0.382005 l 0.536861,2.0258806 z m 2.465808,0 V 4.183037 h 0.01027 l 0.933632,1.4218442 h 0.305281 V 3.5790006 h -0.333304 v 1.4173557 h -0.01179 l -0.93063,-1.4173557 h -0.308269 v 2.0258806 z m 3.169303,-0.3087175 h -0.87607 V 3.5790006 h -0.356933 v 2.0258806 h 1.233003 z m 0.753438,-0.8340978 c 0,-0.4096308 0.206473,-0.6188935 0.48524,-0.6188935 0.280244,0 0.483764,0.2092627 0.483764,0.6188935 v 0.2745763 c 0,0.4096307 -0.20352,0.6040672 -0.483764,0.6040672 -0.278767,0 -0.48524,-0.1944365 -0.48524,-0.6040672 z m -0.361363,0.2730923 c 0,0.5728892 0.321558,0.9098109 0.845128,0.9098109 0.5236,0 0.84808,-0.3369217 0.84808,-0.9098109 v -0.270119 c 0,-0.5743785 -0.320047,-0.9261266 -0.845129,-0.9261266 -0.522124,0 -0.848079,0.3502587 -0.848079,0.9261266 z m 2.427445,0.869723 0.171102,-0.5461796 h 0.694667 l 0.1711,0.5461796 h 0.382005 L 31.442219,3.5790006 h -0.405596 l -0.687284,2.0258806 z m 0.526557,-1.6622799 0.262522,0.8430132 H 30.958456 L 31.222457,3.9426013 Z M 32.617497,3.5790006 V 5.6048812 H 33.3269 c 0.654798,0 0.895438,-0.4289146 0.895438,-1.0166714 0,-0.5936624 -0.246346,-1.0092092 -0.895438,-1.0092092 z m 0.3569,0.2998023 h 0.309746 c 0.429058,0 0.57069,0.2938655 0.57069,0.715349 0,0.5001804 -0.196003,0.7109272 -0.57069,0.7109272 h -0.309746 z m 2.950883,0.583263 c 0,-0.4096308 0.206406,-0.6188935 0.485307,-0.6188935 0.280243,0 0.483631,0.2092627 0.483631,0.6188935 v 0.2745763 c 0,0.4096307 -0.203388,0.6040672 -0.483631,0.6040672 -0.278901,0 -0.485307,-0.1944365 -0.485307,-0.6040672 z m -0.361465,0.2730923 c 0,0.5728892 0.321525,0.9098109 0.845095,0.9098109 0.523568,0 0.848114,-0.3369217 0.848114,-0.9098109 v -0.270119 c 0,-0.5743785 -0.320183,-0.9261266 -0.845094,-0.9261266 -0.522226,0 -0.848115,0.3502587 -0.848115,0.9261266 z m 2.632612,0.869723 V 4.183037 h 0.01003 l 0.933697,1.4218442 h 0.305415 V 3.5790006 h -0.333271 v 1.4173557 h -0.0118 L 38.169814,3.5790006 h -0.308436 v 2.0258806 z m 3.518653,0 V 3.8832297 h 0.585323 V 3.5790006 h -1.523385 v 0.3042291 h 0.58398 v 1.7216515 z m 2.685304,0 V 3.5790006 h -0.356766 v 0.8355821 h -0.89678 V 3.5790006 h -0.356765 v 2.0258806 h 0.356765 V 4.7173584 h 0.89678 V 5.6048812 Z M 46.356048,5.3050791 H 45.440133 V 4.7188424 h 0.861209 V 4.4353558 H 45.440133 V 3.8788029 h 0.915915 V 3.5790006 h -1.271333 v 2.0258806 h 1.271333 z"
       style="stroke-width:0.336674" />
    <path
       id="App-Store"
       fill="#ffffff"
       stroke="none"
       d="m 16.534064,13.034961 1.756441,-5.1772763 h 1.036531 l 1.752682,5.1772763 H 20.103496 L 19.666249,11.639187 H 17.89098 l -0.437213,1.395774 z m 1.556679,-2.093662 h 1.379536 l -0.67094,-2.1543492 h -0.03389 z m 3.548758,3.447729 V 9.0182946 h 0.8707 v 0.5803202 h 0.03389 c 0.08293,-0.1921689 0.226177,-0.3451619 0.429699,-0.4589376 0.20352,-0.1163166 0.454797,-0.1744725 0.753835,-0.1744725 0.454802,0 0.81791,0.1605582 1.089295,0.4817055 0.273901,0.3211112 0.410832,0.7686758 0.410832,1.3426778 v 0.481675 c 0,0.574008 -0.136931,1.020284 -0.410832,1.338901 -0.271385,0.318582 -0.639494,0.477887 -1.104363,0.477887 -0.291488,0 -0.53273,-0.05688 -0.723699,-0.170654 -0.190966,-0.113809 -0.331693,-0.262992 -0.422144,-0.447564 h -0.03768 v 1.919195 z m 0.889528,-3.167073 c 0,0.331249 0.08166,0.604336 0.245006,0.819267 0.165828,0.212396 0.388212,0.318617 0.667147,0.318617 0.266347,0 0.478661,-0.09862 0.636974,-0.295854 0.16083,-0.199766 0.241246,-0.489272 0.241246,-0.868579 V 10.85785 c 0,-0.374242 -0.07918,-0.661213 -0.237454,-0.8609832 -0.15831,-0.2023 -0.376936,-0.3034143 -0.655838,-0.3034143 -0.276416,0 -0.49504,0.1024017 -0.655836,0.3071975 -0.16083,0.2023 -0.241245,0.472862 -0.241245,0.811671 z m 3.480928,3.167073 V 9.0182946 h 0.870668 v 0.5803202 h 0.03393 c 0.0829,-0.1921689 0.226141,-0.3451619 0.429695,-0.4589376 0.203521,-0.1163166 0.454802,-0.1744725 0.753806,-0.1744725 0.454834,0 0.817943,0.1605582 1.089323,0.4817055 0.273869,0.3211112 0.410837,0.7686758 0.410837,1.3426778 v 0.481675 c 0,0.574008 -0.136968,1.020284 -0.410837,1.338901 -0.27138,0.318582 -0.639523,0.477887 -1.104391,0.477887 -0.291489,0 -0.5327,-0.05688 -0.723668,-0.170654 -0.190969,-0.113809 -0.331694,-0.262992 -0.422143,-0.447564 h -0.03769 v 1.919195 z m 0.889532,-3.167073 c 0,0.331249 0.08166,0.604336 0.244968,0.819267 0.165865,0.212396 0.388246,0.318617 0.667148,0.318617 0.266382,0 0.478696,-0.09862 0.63701,-0.295854 0.160795,-0.199766 0.24121,-0.489272 0.24121,-0.868579 V 10.85785 c 0,-0.374242 -0.07914,-0.661213 -0.237451,-0.8609832 -0.158313,-0.2023 -0.376902,-0.3034143 -0.655837,-0.3034143 -0.276418,0 -0.495008,0.1024017 -0.655839,0.3071975 -0.16083,0.2023 -0.241209,0.472862 -0.241209,0.811671 z m 4.639994,0.364137 h 0.885771 c 0.02011,0.230098 0.128141,0.422267 0.324144,0.576507 0.196002,0.151715 0.463591,0.227563 0.802838,0.227563 0.321727,0 0.572772,-0.06954 0.753671,-0.208614 0.183585,-0.139043 0.275209,-0.327429 0.275209,-0.565123 0,-0.187108 -0.06511,-0.336314 -0.196002,-0.447559 -0.128207,-0.111251 -0.331594,-0.201023 -0.610495,-0.26931 l -0.82546,-0.201018 c -0.178415,-0.04046 -0.341729,-0.09608 -0.490006,-0.166875 -0.145728,-0.07332 -0.280143,-0.164372 -0.403281,-0.273088 -0.120626,-0.11125 -0.214833,-0.249072 -0.282695,-0.4134128 -0.06783,-0.1643767 -0.101758,-0.3489446 -0.101758,-0.5537805 0,-0.3211165 0.08669,-0.6005217 0.26007,-0.8382152 0.173382,-0.2402294 0.400798,-0.4184791 0.682217,-0.5347956 0.281419,-0.1163114 0.594286,-0.1744725 0.938532,-0.1744725 0.346898,0 0.659696,0.059408 0.938597,0.178255 0.281251,0.1188464 0.50511,0.2958547 0.670908,0.5310131 0.168146,0.232633 0.255072,0.5031845 0.260106,0.8116703 H 34.55494 C 34.537156,9.0398046 34.441841,8.8539537 34.26832,8.7072789 34.095139,8.5606347 33.853826,8.4873124 33.544687,8.4873124 c -0.288969,0 -0.521387,0.065727 -0.697286,0.1972349 -0.173382,0.1289476 -0.260074,0.3071972 -0.260074,0.5347647 0,0.3363134 0.236208,0.5600933 0.708596,0.6713443 l 0.829087,0.2010487 c 0.206071,0.04803 0.38697,0.107462 0.543034,0.178255 0.155728,0.07079 0.297696,0.16184 0.425903,0.273086 0.130557,0.111246 0.2299,0.250326 0.297695,0.417201 0.0678,0.166907 0.101695,0.359077 0.101695,0.576538 0,0.500654 -0.183249,0.892593 -0.550418,1.175781 -0.364149,0.28322 -0.849123,0.424792 -1.45475,0.424792 -0.278935,0 -0.531456,-0.0316 -0.757631,-0.0948 -0.223628,-0.06323 -0.408319,-0.145386 -0.554045,-0.246536 -0.143244,-0.101155 -0.263866,-0.220001 -0.361868,-0.356545 -0.098,-0.139079 -0.168347,-0.278153 -0.21107,-0.417201 -0.04021,-0.141609 -0.06155,-0.287001 -0.06407,-0.436181 z M 35.981665,9.7541076 V 9.0524408 h 0.572903 V 8.0511319 h 0.86691 v 1.0013089 h 0.776291 v 0.7016668 h -0.776291 v 2.0595474 c 0,0.209871 0.04397,0.354015 0.131898,0.432398 0.09028,0.07586 0.247353,0.113786 0.471213,0.113786 0.09801,0 0.163113,-0.0025 0.196004,-0.0076 v 0.678941 c -0.128209,0.02023 -0.266484,0.03033 -0.414828,0.03033 -0.324209,0 -0.579283,-0.0417 -0.765217,-0.125156 -0.185934,-0.08346 -0.31649,-0.206079 -0.392005,-0.36789 -0.07282,-0.164371 -0.109077,-0.385621 -0.109077,-0.663779 V 9.7541072 Z m 2.730612,1.4109754 v -0.284476 c 0,-0.374238 0.0641,-0.704197 0.192311,-0.9899507 0.130556,-0.2857231 0.332937,-0.5132855 0.606804,-0.6826921 0.273867,-0.1694375 0.605794,-0.2541434 0.995116,-0.2541434 0.582973,0 1.026329,0.1744724 1.330402,0.5234119 0.306758,0.3464143 0.460136,0.8129533 0.460136,1.3995923 v 0.288258 c 0,0.6018 -0.152035,1.075909 -0.45611,1.422319 -0.304072,0.343873 -0.748769,0.515816 -1.334428,0.515816 -0.585323,0 -1.031363,-0.171943 -1.338122,-0.515816 -0.304072,-0.343879 -0.456109,-0.817984 -0.456109,-1.422319 z m 0.893422,-0.02276 c 0,0.171937 0.0151,0.328713 0.04531,0.470327 0.0302,0.141573 0.07787,0.273087 0.142974,0.394433 0.06544,0.118852 0.158413,0.212401 0.279237,0.280689 0.120493,0.06825 0.264805,0.102398 0.433287,0.102398 0.165796,0 0.309106,-0.03285 0.429595,-0.09862 0.120823,-0.06825 0.212448,-0.163088 0.275209,-0.284471 0.06544,-0.121347 0.111766,-0.25286 0.139619,-0.394433 0.0302,-0.141615 0.04496,-0.29839 0.04496,-0.470327 v -0.231376 c 0,-0.174472 -0.01476,-0.332495 -0.04496,-0.47411 C 41.32308,10.29526 41.27676,10.163746 41.211309,10.042395 41.145865,9.9210194 41.052895,9.8274707 40.932406,9.7617135 40.814272,9.6934574 40.6723,9.6593106 40.506504,9.6593106 c -0.165798,0 -0.310449,0.034146 -0.433287,0.1024029 -0.120824,0.068287 -0.213792,0.1630886 -0.279237,0.2844665 -0.06511,0.118846 -0.112768,0.25033 -0.142975,0.394469 -0.0302,0.141583 -0.04531,0.298353 -0.04531,0.470296 z m 3.507242,1.892646 V 9.0221082 h 0.889733 v 0.5196034 h 0.03389 c 0.150696,-0.3868734 0.465841,-0.5802895 0.945776,-0.5802895 0.103039,0 0.201036,0.00884 0.294007,0.026539 V 9.773086 c -0.06276,-0.020233 -0.185934,-0.030329 -0.369183,-0.030329 -0.593042,0 -0.889735,0.311016 -0.889735,0.933017 v 2.359187 z m 2.485946,-1.828173 v -0.337561 c 0,-0.586638 0.153379,-1.0518939 0.4598,-1.3957779 0.306422,-0.3464092 0.729977,-0.5196293 1.270326,-0.5196293 0.550088,0 0.974981,0.1732201 1.274017,0.5196293 0.301389,0.3464144 0.452083,0.8104229 0.452083,1.3919959 v 0.360319 h -2.577905 v 0.125164 c 0,0.295819 0.07787,0.543644 0.233592,0.743379 0.155724,0.19977 0.378243,0.299668 0.667211,0.299668 0.228557,0 0.407108,-0.05059 0.534984,-0.151741 0.130892,-0.10112 0.211104,-0.22881 0.24131,-0.383056 h 0.859526 c -0.01275,0.113782 -0.04161,0.22628 -0.08693,0.337562 -0.04261,0.111251 -0.106732,0.222501 -0.191978,0.333747 -0.08559,0.111282 -0.188617,0.208613 -0.309105,0.292067 -0.118134,0.08346 -0.267826,0.151711 -0.448725,0.204805 -0.1809,0.05059 -0.379254,0.07585 -0.595392,0.07585 -0.567871,0 -1.007535,-0.168123 -1.319326,-0.504438 -0.309104,-0.338844 -0.463493,-0.802821 -0.463493,-1.391991 z m 0.878321,-0.584108 h 1.710995 v -0.0076 c 0,-0.288284 -0.07652,-0.522159 -0.229899,-0.7017016 -0.15338,-0.1795289 -0.36046,-0.2692697 -0.621907,-0.2692697 -0.263795,0 -0.473558,0.09102 -0.62929,0.2730923 -0.153377,0.179508 -0.229899,0.41213 -0.229899,0.697885 z"
       style="stroke-width:0.336674" />
  </g>
</svg>
