<svg width="201" height="84" viewBox="0 0 201 84" fill="none" xmlns="http://www.w3.org/2000/svg">
<path fill-rule="evenodd" clip-rule="evenodd" d="M83.7662 1.66497C74.8062 5.26897 71.0532 9.53797 70.9922 16.196C70.9442 21.515 74.5092 25.932 81.6992 29.462C87.0612 32.095 88.2832 32.288 99.4572 32.264C109.966 32.241 112.046 31.948 116.195 29.909C123.23 26.452 126.957 21.75 126.957 16.332C126.957 10.835 123.791 6.77897 116.577 3.03297C112.051 0.682969 110.123 0.339969 99.9572 0.0769687C90.5272 -0.167031 87.6132 0.118969 83.7662 1.66497ZM114.015 4.51097C127.511 10.542 128.169 20.792 115.477 27.285C104.678 32.809 87.9772 31.792 79.1012 25.068C67.5982 16.356 74.9802 4.01797 92.9572 1.91097C100.274 1.05397 108.569 2.07797 114.015 4.51097ZM88.9262 5.26097C80.3322 8.03397 76.3962 15.232 80.2552 21.121C86.0602 29.982 109.074 30.681 117.006 22.237C119.949 19.105 120.135 13.75 117.407 10.733C112.126 4.89397 98.3002 2.23697 88.9262 5.26097ZM109.841 8.22997C113.192 9.96297 116.957 14.352 116.957 16.525C116.957 17.331 115.487 19.46 113.69 21.257C106.202 28.745 87.7962 27.578 82.3532 19.271C79.4042 14.77 83.4172 9.43097 91.8002 6.70297C95.5152 5.49297 106.317 6.40797 109.841 8.22997ZM100.595 11.607C96.9062 11.91 96.7602 12.055 97.3202 14.857C97.7482 16.996 97.5242 17.79 96.4912 17.79C95.7122 17.79 94.7972 17.34 94.4572 16.79C93.3882 15.06 91.0752 15.704 91.2242 17.69C91.3362 19.171 92.1492 19.591 94.9122 19.596C99.2532 19.602 101.208 18.155 100.38 15.547C99.8292 13.811 100.102 13.663 102.778 14.251C105.158 14.773 105.751 14.589 105.573 13.381C105.271 11.321 105.048 11.241 100.595 11.607ZM0.00122857 23.09C-0.0477714 29.508 1.36123 32.976 5.61823 36.921C9.39823 40.423 76.6172 79.229 82.6932 81.416C90.2462 84.136 108.839 84.45 116.64 81.991C123.286 79.895 190.379 41.439 195.296 36.907C199.549 32.987 200.962 29.512 200.913 23.09L200.869 17.29L199.472 21.212C198.703 23.369 196.81 26.383 195.266 27.91C191.336 31.794 123.66 71.079 116.957 73.368C109.551 75.896 92.7182 75.999 84.9572 73.565C78.4622 71.528 9.73123 31.971 5.64823 27.92C4.10423 26.388 2.21123 23.369 1.44223 21.212L0.0452286 17.29L0.00122857 23.09Z" fill="#0B65C6"/>
</svg>
