<svg width="164" height="164" viewBox="0 0 164 164" fill="none" xmlns="http://www.w3.org/2000/svg">
<path fill-rule="evenodd" clip-rule="evenodd" d="M80 42.417V84.834L74.95 85.917C62.812 88.52 60.755 90.492 31.988 127.095C7.716 157.977 6.802 159 3.456 159C0.436 159 0 159.316 0 161.5V164H82H164V161.5C164 159.347 163.548 158.999 160.75 158.994C157.683 158.988 156.236 157.373 135 130.244C122.625 114.435 110.7 99.524 108.5 97.11C103.279 91.379 98.476 88.419 91.047 86.353L85 84.672V42.336V0H82.5H80V42.417ZM90.667 5.667C90.3 6.033 90 7.158 90 8.167C90 9.909 91.712 10 124.5 10H159V15.5V21H152.5C146.233 21 146 21.09 146 23.5C146 25.91 146.233 26 152.5 26H159V34.5V43H152.5C146.233 43 146 43.09 146 45.5C146 47.91 146.233 48 152.5 48H159V53.5V59H124.43H89.861L90.18 61.25L90.5 63.5L127.25 63.762L164 64.025V34.512V5H127.667C107.683 5 91.033 5.3 90.667 5.667ZM120 18.5C120 20.611 119.533 21 117 21H114V34.5V48H117C119.533 48 120 48.389 120 50.5C120 52.5 120.5 53 122.5 53C124.5 53 125 52.5 125 50.5C125 48.5 125.5 48 127.5 48C129.5 48 130 48.5 130 50.5C130 52.5 130.5 53 132.5 53C134.527 53 135 52.507 135 50.394C135 48.831 135.965 47.029 137.409 45.893C139.652 44.128 139.818 43.344 139.818 34.5C139.818 25.656 139.652 24.872 137.409 23.107C135.965 21.971 135 20.169 135 18.606C135 16.493 134.527 16 132.5 16C130.5 16 130 16.5 130 18.5C130 20.5 129.5 21 127.5 21C125.5 21 125 20.5 125 18.5C125 16.5 124.5 16 122.5 16C120.5 16 120 16.5 120 18.5ZM90.703 21.631C90.316 22.017 90 23.158 90 24.167C90 25.817 90.957 26 99.57 26C108.922 26 109.132 25.949 108.82 23.75C108.52 21.644 107.954 21.482 99.953 21.214C95.252 21.057 91.089 21.244 90.703 21.631ZM133.848 26.885C134.59 27.355 135.035 28.586 134.838 29.62C134.529 31.236 133.39 31.541 126.739 31.792C119.177 32.077 119 32.03 119 29.709C119 28.402 119.3 27.033 119.667 26.667C120.635 25.699 132.259 25.878 133.848 26.885ZM134.815 39.715C135.204 42.448 132.658 43.247 124.947 42.809C119.815 42.518 119.481 42.338 119.179 39.707L118.859 36.913L126.679 37.207C133.886 37.477 134.525 37.674 134.815 39.715ZM90.18 45.25C90.485 47.393 90.928 47.5 99.5 47.5C108.072 47.5 108.515 47.393 108.82 45.25C109.132 43.05 108.924 43 99.5 43C90.076 43 89.868 43.05 90.18 45.25ZM95.783 93.643C99.481 95.535 103.189 98.645 106.761 102.853L112.156 109.205L109.904 111.603C107.041 114.65 104.815 114.626 100.215 111.5C98.19 110.124 95.101 109 93.345 109C91.4 109 88.993 109.976 87.182 111.5C85.548 112.875 83.465 114 82.553 114C81.64 114 79.238 112.875 77.215 111.5C75.19 110.124 72.101 109 70.345 109C68.4 109 65.993 109.976 64.182 111.5C60.517 114.584 58.295 114.642 54.763 111.745L52.026 109.5L56.61 104.034C65.439 93.506 72.968 89.737 83.85 90.399C88.298 90.67 91.873 91.642 95.783 93.643ZM52.411 116.5C54.448 118.054 56.999 119 59.15 119C61.272 119 63.923 118.033 66 116.5C67.864 115.125 70.006 114 70.761 114C71.516 114 73.608 115.125 75.411 116.5C77.448 118.054 79.999 119 82.15 119C84.272 119 86.923 118.033 89 116.5C90.864 115.125 93.006 114 93.761 114C94.516 114 96.608 115.125 98.411 116.5C102.705 119.775 107.562 119.774 112.003 116.498C113.869 115.121 115.728 114.334 116.136 114.748C116.543 115.161 124.492 125.175 133.801 137L150.726 158.5L116.29 158.763C97.35 158.908 66.551 158.908 47.847 158.763L13.84 158.5L31.17 136.296C40.701 124.084 48.643 114.071 48.817 114.046C48.991 114.021 50.608 115.125 52.411 116.5Z" fill="#0B65C6"/>
</svg>
