<svg width="29" height="28" viewBox="0 0 29 28" fill="none" xmlns="http://www.w3.org/2000/svg">
<path fill-rule="evenodd" clip-rule="evenodd" d="M14.5548 27.7905C22.0721 27.7905 28.1661 21.6964 28.1661 14.179C28.1661 6.66168 22.0721 0.567504 14.5548 0.567504C7.03734 0.567504 0.94337 6.66168 0.94337 14.179C0.94337 21.6964 7.03734 27.7905 14.5548 27.7905ZM17.8443 9.96523C17.8443 9.4486 18.2632 9.0298 18.7798 9.0298C19.2966 9.0298 19.7155 9.4486 19.7155 9.96523C19.7155 10.4821 19.2966 10.9011 18.7798 10.9011C18.2632 10.9011 17.8443 10.4821 17.8443 9.96523ZM14.6202 10.2297C12.453 10.2297 10.69 11.9926 10.69 14.1599C10.69 16.327 12.453 18.0902 14.6202 18.0902C16.7874 18.0902 18.5506 16.327 18.5506 14.1599C18.5506 11.9926 16.7874 10.2297 14.6202 10.2297ZM14.6202 16.6775C13.232 16.6775 12.1026 15.5481 12.1026 14.1599C12.1026 12.7717 13.232 11.6423 14.6202 11.6423C16.0085 11.6423 17.1378 12.7717 17.1378 14.1599C17.1378 15.5481 16.0085 16.6775 14.6202 16.6775ZM17.7405 22.1396H11.3687C8.72546 22.1396 6.57503 19.9892 6.57503 17.3458V10.974C6.57503 8.3307 8.72546 6.18027 11.3687 6.18027H17.7405C20.3837 6.18027 22.5345 8.3307 22.5345 10.974V17.3458C22.5345 19.9892 20.3837 22.1396 17.7405 22.1396ZM11.3687 7.68172C9.55321 7.68172 8.07647 9.15849 8.07647 10.974V17.3458C8.07647 19.1614 9.55321 20.6381 11.3687 20.6381H17.7405C19.556 20.6381 21.0329 19.1614 21.0329 17.3458V10.974C21.0329 9.15849 19.556 7.68172 17.7405 7.68172H11.3687Z" fill="#5A749A"/>
</svg>
