<svg width="142" height="40" viewBox="0 0 142 40" fill="none" xmlns="http://www.w3.org/2000/svg">
<path fill-rule="evenodd" clip-rule="evenodd" d="M38.2645 0.03472V0.01712H50.9022V39.9998H38.2645V16.2722H37.2114L29.8393 39.9998H21.063L13.6909 16.2548H13.1643H12.6377V39.9998H0V0.01712H12.6377C12.6377 0.01712 18.1844 -0.000240326 19.6589 5.25512C21.0279 10.1614 24.9245 23.7624 24.9245 23.7624H25.9776C26.083 23.3957 29.8919 10.0914 31.2434 5.27248C32.7149 0.0278216 38.2243 0.0346702 38.2643 0.0347198L38.2645 0.03472ZM78.9864 4.20764C80.724 0.34908 84.4275 0.01712 84.4275 0.01712H96.3633V39.9998H83.7255V16.2548H82.6724L73.8962 35.8096C72.1584 39.6508 68.2793 39.9998 68.2793 39.9998H56.3436V0.01712H68.9813V23.7624H70.0345L78.9864 4.20764ZM101.98 18.1753V39.9998H114.618V27.2543H128.309C134.277 27.2543 139.332 23.4656 141.21 18.1753H101.98ZM100.207 0.01712H128.309C135.874 0.01712 142 6.11052 142 13.6357C142 14.5961 141.912 15.5214 141.719 16.4292H120.059C118.234 16.4292 116.461 16.1849 114.776 15.7308C107.351 13.7406 101.612 7.6296 100.207 0.01712Z" fill="#0B65C6"/>
</svg>
