<svg width="98" height="76" viewBox="0 0 98 76" fill="none" xmlns="http://www.w3.org/2000/svg">
<path fill-rule="evenodd" clip-rule="evenodd" d="M37.2705 30.5445C37.2705 20.9376 41.7976 12.411 48.7443 6.90194C55.6911 12.411 60.2183 20.9376 60.2183 30.5445C60.2183 40.1513 55.779 48.6682 48.7443 54.1872C41.7879 48.7557 37.2705 40.1513 37.2705 30.5445ZM48.7443 54.1872C53.8569 58.1972 60.306 60.6209 67.3406 60.6209C84.005 60.6209 97.4887 47.1694 97.4887 30.5445C97.4887 14.0073 84.005 0.468008 67.3308 0.468008C60.2963 0.468008 53.8471 2.89165 48.7443 6.90194C43.6319 2.89165 37.1827 0.468008 30.148 0.468008C13.4836 0.468008 0 13.9198 0 30.5445C0 47.1694 13.4836 60.6209 30.148 60.6209C37.1827 60.6209 43.6319 58.1972 48.7443 54.1872ZM17.6693 70.8217V75.8344H15.7277V71.4056C15.7277 70.0624 15.1424 69.3129 13.9715 69.3129C12.8886 69.3129 12.0495 69.9846 12.0495 71.4056V75.8344H10.2932V71.4056C10.2932 70.0624 9.70788 69.3129 8.53707 69.3129C7.36617 69.3129 6.615 69.9846 6.615 71.4056V75.8344H4.85874V67.8139H6.615V68.8166C7.27846 67.9017 8.11754 67.6485 8.95661 67.6485C10.2152 67.6485 11.0543 68.1547 11.6397 69.0695C12.3909 67.9795 13.4836 67.6485 14.4886 67.6485C16.4985 67.6485 17.6693 68.9042 17.6693 70.8217ZM40.8707 67.8139H43.7099V69.4005H40.861V72.9922C40.861 73.8195 41.1926 74.3256 42.0317 74.3256C42.4512 74.3256 43.0366 74.238 43.544 73.907L44.0514 75.4159C43.466 75.7468 42.627 75.9998 41.8756 75.9998C39.8658 75.9998 39.1145 74.9195 39.1145 73.0798V69.4005H37.5241V67.8139H39.1145V65.3905H40.8707V67.8139ZM56.5302 68.8068C56.9498 68.1449 57.6229 67.6387 58.6278 67.6387C58.9595 67.6387 59.4572 67.6387 59.8084 67.707L59.3011 69.3812C58.9595 69.3031 58.54 69.2156 58.2083 69.2156C57.1156 69.2156 56.5302 69.9749 56.5302 71.3082V75.8246H54.7741V67.8044H56.5302V68.8068ZM32.8313 67.6387C34.0898 67.6387 35.2606 67.8919 36.0997 68.4758L35.3582 69.897C34.8508 69.6439 33.8459 69.2254 32.841 69.2254C31.9141 69.2254 31.3286 69.5563 31.3286 70.1402C31.3286 70.6368 31.9141 70.8021 32.6653 70.8897L33.5043 70.9773C35.1728 71.2305 36.2655 71.98 36.2655 73.401C36.2655 74.9 34.9191 75.9902 32.5776 75.9902C31.3189 75.9902 30.0603 75.6593 29.1431 74.9875L29.9822 73.6541C30.5676 74.0726 31.4946 74.4912 32.6653 74.4912C33.8362 74.4912 34.5093 74.0726 34.5093 73.4885C34.5093 73.07 34.002 72.817 33.0848 72.6514L32.2457 72.5639C30.4896 72.3207 29.4847 71.5614 29.4847 70.228C29.4847 68.6414 30.8213 67.6387 32.8313 67.6387ZM80.7268 68.8068C81.1464 68.1449 81.8195 67.6387 82.8245 67.6387H82.8246C83.166 67.6387 83.6635 67.6387 84.005 67.7263L83.4977 69.3812C83.1561 69.3031 82.7366 69.2156 82.405 69.2156C81.3122 69.2156 80.7268 69.9749 80.7268 71.3082V75.8246H78.9707V67.8044H80.7268V68.8068ZM64.6575 75.9998C62.0622 75.9998 60.3841 74.2478 60.3841 71.8242C60.3841 69.4005 62.0622 67.6387 64.6575 67.6485C65.8284 67.6485 66.6674 67.8919 67.5065 68.5634L66.6674 69.9846C65.9942 69.488 65.321 69.2351 64.5697 69.2351C63.1452 69.3129 62.1402 70.3156 62.1402 71.8242C62.1402 73.4108 63.1452 74.4134 64.5697 74.4134C65.3307 74.4134 65.9942 74.17 66.6674 73.6639L67.5065 75.0849C66.6674 75.7468 65.8284 75.9998 64.6575 75.9998ZM76.6289 67.8139V71.8242V75.8344H74.8727V74.832C74.3654 75.5812 73.5264 75.9998 72.3556 75.9998C70.0919 75.9998 68.3357 74.2478 68.3357 71.8242C68.3357 69.4005 70.0919 67.6485 72.3556 67.6485C73.4482 67.6485 74.2873 68.067 74.8727 68.8166V67.8139H76.6289ZM72.6092 69.2351C71.0969 69.2351 70.1799 70.4031 70.1799 71.8242C70.1799 73.2356 71.1066 74.3256 72.6092 74.4134C74.0337 74.4134 75.0387 73.2454 75.0387 71.8242C75.0387 70.3252 74.0337 69.2351 72.6092 69.2351ZM45.1442 71.8144C45.1442 69.3129 46.8223 67.6387 49.1639 67.6387C51.4177 67.6387 52.9299 69.3129 52.8519 71.8924V72.5639H46.9101C47.1638 73.9753 48.2468 74.4814 49.3395 74.4814C50.1688 74.4814 51.0079 74.1505 51.6812 73.6444L52.5203 74.9C51.5933 75.6593 50.4226 75.9902 49.2517 75.9902C46.8223 75.9902 45.1442 74.3256 45.1442 71.8144ZM51.1737 71.0651C51.0079 69.819 50.2566 69.1475 49.1639 69.1475C47.9052 69.1475 47.154 69.9846 46.9882 71.0651H51.1737ZM92.7958 64.641V71.8242V75.8344H91.0396V74.832C90.5322 75.5812 89.6931 75.9998 88.5224 75.9998C86.2588 75.9998 84.5026 74.2478 84.5026 71.8242C84.5026 69.4005 86.2588 67.6485 88.5224 67.6485C89.6151 67.6485 90.4542 68.067 91.0396 68.8166V64.641H92.7958ZM88.776 69.2351C87.2638 69.2351 86.3466 70.4031 86.3466 71.8242C86.3466 73.2356 87.2638 74.3256 88.776 74.4134C90.2006 74.4134 91.2055 73.2454 91.2055 71.8242C91.2055 70.3252 90.2006 69.2351 88.776 69.2351ZM27.5528 67.8139V71.8242V75.8344H25.7965V74.832C25.2892 75.5812 24.4501 75.9998 23.2794 75.9998C21.0158 75.9998 19.2595 74.2478 19.2595 71.8242C19.2595 69.4005 21.0158 67.6485 23.2794 67.6485C24.3721 67.6485 25.2112 68.067 25.7965 68.8166V67.8139H27.5528ZM23.455 69.2351C21.9428 69.2351 21.0256 70.4031 21.0256 71.8242C21.0256 73.2356 21.9428 74.3256 23.455 74.4134C24.8795 74.4134 25.8844 73.2454 25.8844 71.8242C25.8844 70.3252 24.8795 69.2351 23.455 69.2351Z" fill="#0B65C6"/>
</svg>
