<svg width="150" height="49" viewBox="0 0 150 49" fill="none" xmlns="http://www.w3.org/2000/svg">
<path fill-rule="evenodd" clip-rule="evenodd" d="M77.8404 16.2979C77.7551 22.9938 83.8316 26.7306 88.4091 28.9522C93.1124 31.2318 94.6921 32.6936 94.6741 34.7318C94.6381 37.8519 90.9224 39.2286 87.4442 39.2821C81.3767 39.3761 77.8493 37.6508 75.0443 36.3455L72.8589 46.5326C75.6728 47.8244 80.883 48.9507 86.2863 48.9998C98.9688 48.9998 107.267 42.7643 107.312 33.0958C107.361 20.8257 90.2717 20.1464 90.3882 14.6619C90.4286 12.999 92.0219 11.2243 95.5134 10.7729C97.2411 10.545 102.012 10.3706 107.42 12.8515L109.542 2.99513C106.634 1.9403 102.896 0.93002 98.2419 0.93002C86.3044 0.93002 77.9076 7.25048 77.8404 16.2979ZM129.939 1.77934C127.624 1.77934 125.672 3.12473 124.801 5.19008L106.684 48.2757H119.357L121.879 41.334H137.367L138.83 48.2757H150L140.252 1.77934H129.939M131.712 14.3399L135.37 31.7995H125.353L131.712 14.3399ZM62.4741 1.77934L52.4842 48.2757H64.5609L74.5462 1.77934H62.4739M44.6081 1.77934L32.0376 33.4265L26.9531 6.51759C26.3561 3.51369 24 1.77934 21.3837 1.77934H0.834L0.54675 3.12938C4.7652 4.04108 9.5583 5.51172 12.4619 7.08511C14.239 8.04619 14.7462 8.88674 15.3295 11.1707L24.9604 48.2757H37.7238L57.2907 1.77934H44.6081Z" fill="#0B65C6"/>
</svg>
