<svg width="13" height="19" viewBox="0 0 13 19" fill="none" xmlns="http://www.w3.org/2000/svg">
<path fill-rule="evenodd" clip-rule="evenodd" d="M9.41334 4.45234C9.41334 6.36158 7.88476 7.91514 6.00598 7.91514C4.12698 7.91514 2.59838 6.36158 2.59838 4.45234C2.59838 2.5436 4.12698 0.990276 6.00598 0.990276C7.88476 0.990276 9.41334 2.5436 9.41334 4.45234ZM9.67816 8.77204C9.68446 8.774 9.69064 8.77595 9.69692 8.77816C11.0773 9.24563 12.0047 10.5534 12.0046 12.0318V17.1793C12.0046 17.6375 11.6392 18.0088 11.1884 18.0088H0.823176C0.372396 18.0088 0.006984 17.6375 0.006984 17.1793V12.0318C0.006984 10.5534 0.934416 9.24563 2.3148 8.77816C2.3211 8.77595 2.32728 8.774 2.33357 8.77204L3.24806 8.48705C3.52296 8.40121 3.82176 8.4692 4.03474 8.66465L6.00598 10.4756L7.97711 8.66465C8.19008 8.4692 8.48878 8.40144 8.76378 8.48705L9.67816 8.77204Z" fill="#AEAFAF"/>
</svg>
