<svg width="17" height="17" viewBox="0 0 17 17" fill="none" xmlns="http://www.w3.org/2000/svg">
<path fill-rule="evenodd" clip-rule="evenodd" d="M8.64273 -0.00051C10.7165 0.288626 12.5952 1.22624 14.08 2.71108C15.4881 4.12276 16.4118 5.90039 16.7498 7.85905L15.4638 8.07871C15.1744 6.38841 14.3762 4.85122 13.1598 3.63499C11.8772 2.35564 10.253 1.54351 8.46146 1.29253L8.64273 -0.00051ZM12.7347 11.0797C12.1874 10.5396 11.5042 10.5396 10.9605 11.0797C10.5458 11.4909 10.131 11.9023 9.72317 12.3206C9.6117 12.4356 9.51752 12.4598 9.38157 12.383C9.27521 12.325 9.16613 12.2714 9.05712 12.2179C8.89107 12.1363 8.72522 12.0548 8.5695 11.9581C7.36705 11.2015 6.35975 10.2291 5.46745 9.13497C5.02479 8.59095 4.63089 8.00875 4.35555 7.35391C4.29981 7.22133 4.31023 7.13424 4.41837 7.02612C4.77159 6.68487 5.11726 6.33581 5.46392 5.98574L5.464 5.98567L5.64517 5.8028C6.21338 5.23112 6.21338 4.56185 5.64174 3.98675C5.48499 3.82839 5.32826 3.67168 5.17154 3.51498L5.17148 3.51492C5.00407 3.34753 4.83666 3.18014 4.66922 3.01073C4.55755 2.89911 4.44625 2.78707 4.33495 2.67502L4.33492 2.675C4.11281 2.45141 3.89066 2.22779 3.66547 2.00731C3.11821 1.4738 2.43511 1.4738 1.8914 2.01073C1.72289 2.17629 1.5572 2.34364 1.39162 2.51088L1.3916 2.5109C1.14617 2.7588 0.900954 3.00647 0.647088 3.24777C0.253181 3.6208 0.054519 4.0775 0.012733 4.61077C-0.053516 5.47844 0.159103 6.29765 0.45883 7.09583C1.07224 8.74774 2.00641 10.2152 3.13915 11.5606C4.66922 13.3801 6.4957 14.8194 8.63221 15.858C9.59419 16.325 10.5911 16.6841 11.6751 16.7436C12.4209 16.7854 13.0692 16.597 13.5885 16.0148C13.8221 15.7541 14.0751 15.5082 14.328 15.2625L14.328 15.2625L14.328 15.2624C14.4601 15.1341 14.5922 15.0058 14.7214 14.8754C15.279 14.3106 15.2825 13.6274 14.7284 13.0699C14.0661 12.4043 13.4004 11.7419 12.7347 11.0797ZM12.0689 8.30156L13.3551 8.08214C13.1528 6.90088 12.5952 5.83068 11.7482 4.98015C10.8525 4.08461 9.71973 3.51978 8.47186 3.34562L8.29071 4.63865C9.25613 4.77467 10.1345 5.21033 10.8281 5.90381C11.4834 6.55914 11.9121 7.38864 12.0689 8.30156Z" fill="#AEAFAF"/>
</svg>
