<svg width="201" height="82" viewBox="0 0 201 82" fill="none" xmlns="http://www.w3.org/2000/svg">
<path fill-rule="evenodd" clip-rule="evenodd" d="M90.9003 0.851471C85.5773 2.80347 75.1103 9.40147 73.9763 11.5205C73.2093 12.9545 73.5353 14.0265 75.4203 16.2655L77.8543 19.1595L74.9163 20.8945C73.3003 21.8495 71.9783 23.0105 71.9783 23.4745C71.9783 23.9385 75.9163 24.4805 80.7283 24.6795C88.9493 25.0175 89.9053 25.2955 96.5363 29.2785C102.537 32.8825 104.41 33.5175 109.036 33.5145C113.754 33.5115 115.542 32.8735 122.478 28.7135C129.417 24.5525 130.518 23.5085 130.782 20.8415C131.078 17.8535 130.664 17.5215 116.282 9.21647C100.459 0.0784721 96.5363 -1.21453 90.9003 0.851471ZM113.656 9.95047C127.767 18.1835 129.331 19.4335 128.437 21.7645C127.64 23.8405 112.02 32.5175 109.079 32.5175C107.76 32.5175 102.937 30.4765 98.3623 27.9825C91.7443 24.3755 88.6873 23.3215 83.4113 22.8285C76.8873 22.2195 76.8203 22.1835 79.3403 20.6545L81.9023 19.1005L78.7673 16.4825C76.8123 14.8505 75.8503 13.2925 76.2133 12.3475C76.5333 11.5135 80.3233 8.71647 84.6363 6.13147C95.1433 -0.165529 96.6593 0.0344706 113.656 9.95047ZM91.2283 10.1795C90.5413 10.4575 89.9783 11.4985 89.9783 12.4935C89.9783 15.6575 95.7753 16.6715 98.0683 13.9095C99.2023 12.5425 99.1163 12.0915 97.4993 10.9095C95.5733 9.50047 93.5063 9.26047 91.2283 10.1795ZM95.9783 12.5175C95.9783 13.0675 95.0783 13.5175 93.9783 13.5175C92.8783 13.5175 91.9783 13.0675 91.9783 12.5175C91.9783 11.9675 92.8783 11.5175 93.9783 11.5175C95.0783 11.5175 95.9783 11.9675 95.9783 12.5175ZM98.6453 15.1845C97.1003 16.7295 98.1173 19.3355 100.499 19.9335C102.985 20.5575 106.978 19.1705 106.978 17.6825C106.978 15.2215 100.538 13.2905 98.6453 15.1845ZM103.978 17.5175C103.978 18.0675 103.33 18.5175 102.537 18.5175C101.744 18.5175 100.818 18.0675 100.478 17.5175C100.138 16.9675 100.787 16.5175 101.919 16.5175C103.051 16.5175 103.978 16.9675 103.978 17.5175ZM0.000295642 21.8175C-0.0247044 27.2645 1.5333 30.8235 5.6393 34.6945C10.1043 38.9055 78.8523 78.4025 84.9783 80.2765C92.6073 82.6105 108.552 82.5425 116.478 80.1415C123.431 78.0365 191.33 38.7575 196.132 34.0625C199.947 30.3325 200.984 27.6765 200.956 21.7025L200.934 17.0175L199.065 21.1335C198.037 23.3975 195.684 26.3935 193.837 27.7905C188.247 32.0185 124.823 68.7355 119.75 70.6805C107.221 75.4825 91.0153 75.0695 79.4783 69.6535C72.2573 66.2625 11.8793 31.3005 7.1193 27.7535C5.2723 26.3765 2.9193 23.3975 1.8913 21.1335L0.0222956 17.0175L0.000295642 21.8175ZM106.358 20.9695C105.5 23.2065 106.814 24.5175 109.915 24.5175C113.368 24.5175 115.477 22.4165 113.754 20.6935C112.099 19.0385 107.026 19.2275 106.358 20.9695ZM111.478 21.5175C111.823 22.0755 111.075 22.5105 109.787 22.5025C107.929 22.4895 107.771 22.2975 108.978 21.5175C110.839 20.3155 110.735 20.3155 111.478 21.5175Z" fill="#8CB0FF"/>
</svg>
