<svg width="201" height="84" viewBox="0 0 201 84" fill="none" xmlns="http://www.w3.org/2000/svg">
<path fill-rule="evenodd" clip-rule="evenodd" d="M84.9086 6.73364C69.1386 16.0876 69.1406 16.8556 84.9756 26.1736C94.8726 31.9966 97.1476 32.9416 101.298 32.9456C106.071 32.9516 114.976 28.9866 114.976 26.8566C114.976 25.3006 112.629 25.8676 108.476 28.4256C106.276 29.7806 103.161 30.9036 101.554 30.9206C98.0706 30.9576 75.9756 18.4716 75.9756 16.4656C75.9756 14.7106 97.7446 1.95164 100.739 1.95164C103.686 1.95164 125.976 14.9516 125.976 16.6716C125.976 17.3756 126.682 17.9516 127.546 17.9516C128.588 17.9516 129.008 17.2216 128.796 15.7776C128.56 14.1756 125.337 11.8086 116.544 6.77764C100.762 -2.25136 100.056 -2.25236 84.9086 6.73364ZM93.6736 13.7016C93.4436 14.1136 93.4606 16.0896 93.7116 18.0916C94.1686 21.7306 94.1686 21.7306 111.123 22.4576C126.403 23.1136 130.261 22.9026 128.849 21.4906C128.596 21.2376 121.096 20.7186 112.182 20.3376C95.9756 19.6446 95.9756 19.6446 95.9756 16.2986C95.9756 13.2546 94.7176 11.8356 93.6736 13.7016ZM0.0195588 22.7516C-0.0624412 34.5696 -1.39644 33.4406 43.4756 59.5076C84.5836 83.3866 84.4836 83.3456 100.976 83.3746C117.002 83.4036 116.649 83.5506 158.07 59.4716C201.924 33.9766 201.049 34.7236 200.87 22.9516C200.795 18.0086 200.598 17.1746 200.047 19.4726C198.232 27.0376 199.221 26.3146 157.133 50.8836C114.708 75.6486 114.778 75.6206 97.3196 74.7206C84.4366 74.0566 84.5396 74.1026 43.9756 50.6606C7.99256 29.8666 3.77156 26.8586 1.46256 20.3776C0.0635587 16.4516 0.0635588 16.4516 0.0195588 22.7516Z" fill="#0000FF"/>
<path fill-rule="evenodd" clip-rule="evenodd" d="M84.9086 6.73364C69.1386 16.0876 69.1406 16.8556 84.9756 26.1736C94.8726 31.9966 97.1476 32.9416 101.298 32.9456C106.071 32.9516 114.976 28.9866 114.976 26.8566C114.976 25.3006 112.629 25.8676 108.476 28.4256C106.276 29.7806 103.161 30.9036 101.554 30.9206C98.0706 30.9576 75.9756 18.4716 75.9756 16.4656C75.9756 14.7106 97.7446 1.95164 100.739 1.95164C103.686 1.95164 125.976 14.9516 125.976 16.6716C125.976 17.3756 126.682 17.9516 127.546 17.9516C128.588 17.9516 129.008 17.2216 128.796 15.7776C128.56 14.1756 125.337 11.8086 116.544 6.77764C100.762 -2.25136 100.056 -2.25236 84.9086 6.73364ZM93.6736 13.7016C93.4436 14.1136 93.4606 16.0896 93.7116 18.0916C94.1686 21.7306 94.1686 21.7306 111.123 22.4576C126.403 23.1136 130.261 22.9026 128.849 21.4906C128.596 21.2376 121.096 20.7186 112.182 20.3376C95.9756 19.6446 95.9756 19.6446 95.9756 16.2986C95.9756 13.2546 94.7176 11.8356 93.6736 13.7016ZM0.0695533 22.9516C-0.0864467 34.6766 -1.99845 33.1016 46.4756 61.1856C84.9186 83.4576 84.5776 83.3196 100.976 83.3636C117.093 83.4066 116.73 83.5606 159.65 58.4756C201.842 33.8156 201.064 34.4906 200.874 22.7516C200.795 17.8896 200.606 17.1416 200.047 19.4726C198.243 26.9926 198.714 26.6516 154.476 52.4956C117.817 73.9116 117.135 74.2136 104.024 74.7536C87.0606 75.4526 85.7655 74.9346 44.4566 50.9406C7.76755 29.6296 2.88555 26.1376 1.14255 19.9516C0.225553 16.7006 0.149553 16.9136 0.0695533 22.9516Z" fill="#000080"/>
<path fill-rule="evenodd" clip-rule="evenodd" d="M84.9086 6.73364C69.1386 16.0876 69.1406 16.8556 84.9756 26.1736C94.8726 31.9966 97.1476 32.9416 101.298 32.9456C106.071 32.9516 114.976 28.9866 114.976 26.8566C114.976 25.3006 112.629 25.8676 108.476 28.4256C106.276 29.7806 103.111 30.9036 101.444 30.9206C97.8806 30.9566 75.9756 18.5126 75.9756 16.4516C75.9756 14.6886 97.7746 1.95164 100.793 1.95164C103.785 1.95164 125.976 14.9126 125.976 16.6606C125.976 17.3706 126.682 17.9516 127.546 17.9516C128.588 17.9516 129.008 17.2216 128.796 15.7776C128.56 14.1756 125.337 11.8086 116.544 6.77764C100.762 -2.25136 100.056 -2.25236 84.9086 6.73364ZM93.6736 13.7016C93.4436 14.1136 93.4606 16.0896 93.7116 18.0916C94.1686 21.7306 94.1686 21.7306 111.123 22.4576C126.403 23.1136 130.261 22.9026 128.849 21.4906C128.596 21.2376 121.096 20.7186 112.182 20.3376C95.9756 19.6446 95.9756 19.6446 95.9756 16.2986C95.9756 13.2546 94.7176 11.8356 93.6736 13.7016ZM0.0695533 22.9516C-0.0864467 34.6766 -1.99845 33.1016 46.4756 61.1856C84.9186 83.4576 84.5776 83.3196 100.976 83.3636C117.093 83.4066 116.73 83.5606 159.65 58.4756C201.842 33.8156 201.064 34.4906 200.874 22.7516C200.795 17.8896 200.606 17.1416 200.047 19.4726C198.243 26.9926 198.714 26.6516 154.476 52.4956C117.817 73.9116 117.135 74.2136 104.024 74.7536C87.0606 75.4526 85.7655 74.9346 44.4566 50.9406C7.76755 29.6296 2.88555 26.1376 1.14255 19.9516C0.225553 16.7006 0.149553 16.9136 0.0695533 22.9516Z" fill="#0080FF"/>
<path fill-rule="evenodd" clip-rule="evenodd" d="M84.9086 6.73364C69.1386 16.0876 69.1406 16.8556 84.9756 26.1736C94.8726 31.9966 97.1476 32.9416 101.298 32.9456C106.071 32.9516 114.976 28.9866 114.976 26.8566C114.976 25.3006 112.629 25.8676 108.476 28.4256C106.276 29.7806 103.111 30.9036 101.444 30.9206C97.8806 30.9566 75.9756 18.5126 75.9756 16.4516C75.9756 14.6886 97.7746 1.95164 100.793 1.95164C103.785 1.95164 125.976 14.9126 125.976 16.6606C125.976 17.3706 126.682 17.9516 127.546 17.9516C128.588 17.9516 129.008 17.2216 128.796 15.7776C128.56 14.1756 125.337 11.8086 116.544 6.77764C100.762 -2.25136 100.056 -2.25236 84.9086 6.73364ZM93.6736 13.7016C93.4436 14.1136 93.4606 16.0896 93.7116 18.0916C94.1686 21.7306 94.1686 21.7306 111.123 22.4576C126.403 23.1136 130.261 22.9026 128.849 21.4906C128.596 21.2376 121.096 20.7186 112.182 20.3376C95.9756 19.6446 95.9756 19.6446 95.9756 16.2986C95.9756 13.2546 94.7176 11.8356 93.6736 13.7016ZM0.078553 22.7516C-0.114447 34.5506 -1.56545 33.3296 43.9756 59.6976C84.5566 83.1936 85.2156 83.4646 101.476 83.4136C117.006 83.3646 116.801 83.4526 159.488 58.5416C201.855 33.8156 201.065 34.4996 200.874 22.7516C200.795 17.8896 200.606 17.1416 200.047 19.4726C198.23 27.0466 198.847 26.6026 152.476 53.6556C117.415 74.1096 117.432 74.1016 103.964 74.7126C87.1426 75.4746 85.7406 74.9186 44.9756 51.3066C8.15755 29.9806 2.76555 26.1376 1.14555 20.0636C0.235553 16.6506 0.176553 16.7986 0.078553 22.7516Z" fill="#0080BF"/>
<path fill-rule="evenodd" clip-rule="evenodd" d="M84.9086 6.73364C69.1386 16.0876 69.1406 16.8556 84.9756 26.1736C94.8726 31.9966 97.1476 32.9416 101.298 32.9456C106.071 32.9516 114.976 28.9866 114.976 26.8566C114.976 25.3006 112.629 25.8676 108.476 28.4256C106.276 29.7806 103.111 30.9036 101.444 30.9206C97.8806 30.9566 75.9756 18.5126 75.9756 16.4516C75.9756 14.6886 97.7746 1.95164 100.793 1.95164C103.785 1.95164 125.976 14.9126 125.976 16.6606C125.976 17.3706 126.682 17.9516 127.546 17.9516C128.588 17.9516 129.008 17.2216 128.796 15.7776C128.56 14.1756 125.337 11.8086 116.544 6.77764C100.762 -2.25136 100.056 -2.25236 84.9086 6.73364ZM93.6736 13.7016C93.4436 14.1136 93.4606 16.0896 93.7116 18.0916C94.1686 21.7306 94.1686 21.7306 111.123 22.4576C126.403 23.1136 130.261 22.9026 128.849 21.4906C128.596 21.2376 121.096 20.7186 112.182 20.3376C95.9756 19.6446 95.9756 19.6446 95.9756 16.2986C95.9756 13.2546 94.7176 11.8356 93.6736 13.7016ZM0.077556 22.7516C-0.113444 34.5376 -1.63945 33.2536 43.9756 59.6816C83.9296 82.8296 85.3046 83.4076 100.476 83.4336C116.115 83.4596 117.976 82.6806 158.008 59.3646C202.024 33.7266 201.065 34.5456 200.874 22.7516C200.795 17.8896 200.606 17.1416 200.047 19.4726C198.228 27.0576 198.641 26.7596 152.464 53.6866C116.267 74.7946 117.085 74.4686 100.476 74.3906C83.9276 74.3136 86.3206 75.3126 44.1926 50.8946C8.64256 30.2896 2.38456 25.7926 0.979556 19.8386C0.291556 16.9226 0.165556 17.3276 0.077556 22.7516Z" fill="#0B65C6"/>
<path fill-rule="evenodd" clip-rule="evenodd" d="M84.9086 6.73364C69.1386 16.0876 69.1406 16.8556 84.9756 26.1736C94.8726 31.9966 97.1476 32.9416 101.298 32.9456C106.071 32.9516 114.976 28.9866 114.976 26.8566C114.976 25.3006 112.629 25.8676 108.476 28.4256C106.276 29.7806 103.111 30.9036 101.444 30.9206C97.8806 30.9566 75.9756 18.5126 75.9756 16.4516C75.9756 14.6886 97.7746 1.95164 100.793 1.95164C103.785 1.95164 125.976 14.9126 125.976 16.6606C125.976 17.3706 126.682 17.9516 127.546 17.9516C128.588 17.9516 129.008 17.2216 128.796 15.7776C128.56 14.1756 125.337 11.8086 116.544 6.77764C100.762 -2.25136 100.056 -2.25236 84.9086 6.73364ZM93.6736 13.7016C93.4436 14.1136 93.4606 16.0896 93.7116 18.0916C94.1686 21.7306 94.1686 21.7306 111.123 22.4576C126.403 23.1136 130.261 22.9026 128.849 21.4906C128.596 21.2376 121.096 20.7186 112.182 20.3376C95.9756 19.6446 95.9756 19.6446 95.9756 16.2986C95.9756 13.2546 94.7176 11.8356 93.6736 13.7016Z" fill="#063A72"/>
</svg>
