<svg width="28" height="28" viewBox="0 0 28 28" fill="none" xmlns="http://www.w3.org/2000/svg">
<path fill-rule="evenodd" clip-rule="evenodd" d="M14.4221 27.3631C21.8844 27.3631 27.9336 21.3138 27.9336 13.8517C27.9336 6.3894 21.8844 0.340256 14.4221 0.340256C6.96002 0.340256 0.910784 6.3894 0.910784 13.8517C0.910784 21.3138 6.96002 27.3631 14.4221 27.3631ZM20.3972 9.64698C20.9021 9.56234 21.4196 9.43368 21.8875 9.22208C21.9011 9.21591 21.9116 9.21054 21.9198 9.20637C21.9475 9.1922 21.9479 9.19202 21.9479 9.22208V9.23479C21.9479 9.27296 21.9473 9.36541 21.87 9.46963C21.5257 9.93294 21.1536 10.3478 20.6921 10.6947C20.6792 10.7044 20.6646 10.7141 20.6494 10.7243C20.586 10.7667 20.5127 10.8158 20.5127 10.8926C20.5127 13.326 19.8909 15.7566 18.1172 17.5188C15.8585 19.7629 12.4701 20.3734 9.46179 19.5427C8.87942 19.3818 8.3223 19.1562 7.78786 18.873C7.61082 18.7764 7.43722 18.6765 7.26636 18.5638C7.2231 18.5288 7.19096 18.4967 7.22792 18.474C7.26443 18.4556 7.29268 18.4542 7.42728 18.474C8.26865 18.5567 9.13531 18.4317 9.93135 18.1533C9.9553 18.1449 9.98075 18.1361 10.0075 18.1268C10.4699 17.9665 11.3238 17.6703 11.5801 17.2795C11.5832 17.2748 11.5864 17.2724 11.5896 17.27C11.5929 17.2675 11.5962 17.265 11.5996 17.26C11.5366 17.2452 11.4738 17.239 11.411 17.2327C11.3643 17.228 11.3176 17.2233 11.271 17.2152C10.4537 16.9816 9.36225 16.5716 8.85662 15.1937C8.8247 15.1132 8.85662 15.0714 8.9404 15.0875C9.61321 15.1401 9.85491 15.1032 10.0895 15.0518C9.95756 15.0295 9.82251 14.9843 9.70018 14.9329C8.67045 14.541 7.91857 13.5366 7.78134 12.451C7.76555 12.3255 7.75561 12.2189 7.76213 12.1032C7.7684 12.0227 7.80402 11.997 7.87497 12.0418C8.40437 12.3157 8.99842 12.3801 9.04649 12.3703C8.91467 12.2673 8.79231 12.1545 8.67331 12.0418C7.78067 11.1961 7.43392 9.47526 8.14848 8.40409C8.20672 8.31723 8.24508 8.31723 8.31603 8.39796C9.94899 10.2588 11.9605 11.1272 14.3875 11.4885C14.4516 11.498 14.4579 11.4885 14.4484 11.4175C14.3854 10.9899 14.3768 10.5716 14.4801 10.1487C14.5873 9.71057 14.7966 9.29718 15.0803 8.9469C15.3545 8.60857 15.699 8.32801 16.0849 8.12619C16.4702 7.92512 16.8963 7.80282 17.3304 7.77442C17.7764 7.74556 18.2289 7.81724 18.643 7.98602C18.9586 8.11446 19.2383 8.28836 19.4991 8.51049C19.5529 8.55474 19.6005 8.60848 19.6509 8.66541L19.6535 8.66827C19.6858 8.70055 19.724 8.71352 19.7753 8.70055C20.3956 8.54546 20.9787 8.32653 21.5423 8.02444C21.568 8.01172 21.589 8.00512 21.6214 8.01783C21.647 8.0374 21.6374 8.06968 21.6247 8.09536C21.524 8.42461 21.3455 8.72967 21.13 8.99727C20.9887 9.17291 20.6368 9.6066 20.3972 9.64698Z" fill="#5A749A"/>
</svg>
